<svg xmlns="http://www.w3.org/2000/svg" xmlns:xlink="http://www.w3.org/1999/xlink" width="160" height="60" viewBox="0 0 160 60">
  <defs>
    <style>
      .cls-1 {
        clip-path: url(#clip-Artboard_2);
      }

      .cls-2 {
        fill: #dfdfdf;
      }

      .cls-3 {
        fill: #565656;
        font-size: 14px;
        font-family: AvertaStd-Bold, Averta Std;
        font-weight: 700;
        letter-spacing: 0.005em;
      }

      .cls-4 {
        fill: #4843cc;
      }

      .cls-6 {
        fill: transparent;
        
      }

      .cls-5 {
        stroke: #fff;
        stroke-width: 1.5px;
      }

      .cls-7 {
        filter: url(#Ellipse_18);
      }
    </style>
    <filter id="Ellipse_18" x="99.378" y="2.458" width="61.792" height="61.792" filterUnits="userSpaceOnUse">
      <feOffset dy="3" input="SourceAlpha"/>
      <feGaussianBlur stdDeviation="3" result="blur"/>
      <feFlood flood-opacity="0.161"/>
      <feComposite operator="in" in2="blur"/>
      <feComposite in="SourceGraphic"/>
    </filter>
    <clipPath id="clip-Artboard_2">
      <rect width="160" height="60"/>
    </clipPath>
  </defs>
  <g id="Artboard_2" data-name="Artboard – 2" class="cls-1">
    <rect class="cls-6" width="160" height="60"/>
    <g id="Group_293" data-name="Group 293" transform="translate(-1264 -746)">
      <rect id="Rectangle_65" data-name="Rectangle 65" class="cls-2" width="144.17" height="30.507" rx="15.254" transform="translate(1272 760.855)"/>
      <text id="PENDING" class="cls-3" transform="translate(1326.634 781.252)"><tspan x="-31.878" y="0">PENDING</tspan></text>
      <g id="Group_70" data-name="Group 70" transform="translate(1372.378 754.458)">
        <g class="cls-7" transform="matrix(1, 0, 0, 1, -108.38, -8.46)">
          <ellipse id="Ellipse_18-2" data-name="Ellipse 18" class="cls-4" cx="21.896" cy="21.896" rx="21.896" ry="21.896" transform="translate(108.38 8.46)"/>
        </g>
        <g id="spinner-of-dots" transform="translate(11.641 11.288)">
          <g id="Group_63" data-name="Group 63" transform="translate(0)">
            <path id="Path_33" data-name="Path 33" class="cls-5" d="M70.427,324.332a1.9,1.9,0,1,0,1.34.555A1.834,1.834,0,0,0,70.427,324.332Z" transform="translate(-65.779 -309.332)"/>
            <path id="Path_34" data-name="Path 34" class="cls-5" d="M13.367,193.97a2.11,2.11,0,0,0-3.6-1.492,2.11,2.11,0,1,0,2.984,2.984A2.034,2.034,0,0,0,13.367,193.97Z" transform="translate(-9.142 -182.984)"/>
            <path id="Path_35" data-name="Path 35" class="cls-5" d="M343.667,88.907a1.059,1.059,0,1,0-.746-.31A1.017,1.017,0,0,0,343.667,88.907Z" transform="translate(-327.189 -82.78)"/>
            <path id="Path_36" data-name="Path 36" class="cls-5" d="M61.717,59.388a2.322,2.322,0,1,0,1.644.68A2.24,2.24,0,0,0,61.717,59.388Z" transform="translate(-57.069 -56.641)"/>
            <path id="Path_37" data-name="Path 37" class="cls-5" d="M395.035,210.5a1.276,1.276,0,1,0,.37.9A1.222,1.222,0,0,0,395.035,210.5Z" transform="translate(-375.124 -200.415)"/>
            <path id="Path_38" data-name="Path 38" class="cls-5" d="M334.953,333.473a1.488,1.488,0,1,0,1.043.436A1.423,1.423,0,0,0,334.953,333.473Z" transform="translate(-318.475 -318.051)"/>
            <path id="Path_39" data-name="Path 39" class="cls-5" d="M202.688,383.717a1.691,1.691,0,1,0,1.195.5A1.629,1.629,0,0,0,202.688,383.717Z" transform="translate(-192.125 -365.971)"/>
            <path id="Path_40" data-name="Path 40" class="cls-5" d="M185.262,0a2.445,2.445,0,0,0-1.8.739,2.446,2.446,0,0,0-.739,1.8,2.445,2.445,0,0,0,.739,1.8,2.551,2.551,0,0,0,3.592,0,2.445,2.445,0,0,0,.739-1.8,2.446,2.446,0,0,0-.739-1.8A2.444,2.444,0,0,0,185.262,0Z" transform="translate(-174.699)"/>
          </g>
        </g>
      </g>
    </g>
  </g>
</svg>
